<?xml version="1.0" encoding="UTF-8" standalone="no"?>
<svg width="142px" height="31px" viewBox="0 0 142 31" version="1.1" xmlns="http://www.w3.org/2000/svg" xmlns:xlink="http://www.w3.org/1999/xlink" xmlns:sketch="http://www.bohemiancoding.com/sketch/ns">
    <!-- Generator: Sketch 3.3.2 (12043) - http://www.bohemiancoding.com/sketch -->
    <title>kudoso-logo-white</title>
    <desc>Created with Sketch.</desc>
    <defs></defs>
    <g id="Refined-Logo" stroke="none" stroke-width="1" fill="none" fill-rule="evenodd" sketch:type="MSPage">
        <g id="kudoso-logo-white" sketch:type="MSArtboardGroup" fill="#FFFFFF">
            <g id="Logo-Copy" sketch:type="MSLayerGroup">
                <path d="M83.3739808,31 C90.7573254,30.9999999 94.5935422,25.8394917 94.5935422,19.4736822 C94.5935422,13.1078727 90.8527512,7.94736442 83.3739808,7.94736442 C75.8952104,7.94736442 72.1544194,13.1078727 72.1544194,19.4736822 C72.1544194,25.8394917 75.9906362,31.0000001 83.3739808,31 Z M81.7662138,11.3397443 C81.7662142,12.3124823 81.6164198,12.8110484 81.2027218,13.6139696 C80.7890237,14.4168908 80.6093511,14.1871667 80.0826575,15.0408254 C79.5559639,15.894484 79.5863174,16.5423852 78.7940862,17.6830383 C78.3454569,18.328974 77.8699221,19.1667238 77.3444676,19.4672444 C76.9420258,19.6974109 76.6635542,20.5945171 76.6635542,20.5945171 C76.6635542,20.5945171 77.2272416,25.0290128 77.3444676,25.5465067 C77.4616936,26.0640006 77.375303,26.3334094 78.2960249,26.6737795 C79.2167467,27.0141495 79.2767492,27.5173261 80.0826574,27.6860263 C81.7858974,28.0425644 86.8603062,27.7883416 87.1517241,27.6860263 C87.4431419,27.5837111 88.3578169,27.3032552 88.3578173,26.7865068 C88.3578177,26.2697583 87.8821761,25.6224031 87.8821761,25.6224031 C87.8821761,25.6224031 89.2002765,25.2141224 89.2002767,24.4752393 C89.200277,23.7363562 88.4705154,23.1476231 88.4705154,23.1476231 C88.4705154,23.1476231 89.758737,22.5231138 89.758737,21.8912211 C89.7587369,21.2593285 88.6784232,20.3896792 88.6784232,20.3896792 C88.6784232,20.3896792 89.8503777,19.9126152 89.8503772,19.1766208 C89.8503767,18.4406264 88.6510344,17.9081296 87.9070238,17.9081296 C87.1209141,17.9081296 83.7716722,18.0567253 83.2665967,17.9081296 C82.7615211,17.7595339 82.7153163,17.2457802 82.9642812,16.2865213 C83.1431224,15.5974482 83.737772,14.531602 83.9102415,13.6139696 C84.3228057,11.4189008 81.7662135,10.3670064 81.7662138,11.3397443 Z M8.45863519,20.0305028 L5.47797327,22.848865 L5.47797327,27.2173264 C5.47797327,28.2775727 5.19937815,29.0928765 4.64217955,29.6632622 C4.08498096,30.2336479 3.44387652,30.5188364 2.71884703,30.5188364 C1.87297928,30.5188364 1.20837887,30.237003 0.725025874,29.6733278 C0.241672874,29.1096525 0,28.2775729 0,27.1770641 L0,3.7443955 C0,2.5230991 0.234959739,1.59371991 0.704886266,0.956230033 C1.17481279,0.318740157 1.84612633,0 2.71884703,0 C3.56471477,0 4.23602831,0.288543721 4.73280779,0.86563982 C5.22958726,1.44273592 5.47797327,2.29494644 5.47797327,3.42229696 L5.47797327,16.7491239 L11.6608328,10.2668909 C12.4261417,9.46164051 13.0101845,8.91139435 13.4129787,8.61613588 C13.8157728,8.32087741 14.3058317,8.17325039 14.88317,8.17325039 C15.5679201,8.17325039 16.1385366,8.39133576 16.5950367,8.82751304 C17.0515367,9.26369033 17.2797833,9.81058133 17.2797833,10.4682025 C17.2797833,11.2734528 16.5346253,12.3471039 15.0442869,13.6891878 L12.1240438,16.3666319 L17.7631339,25.2243417 C18.1793545,25.8819629 18.4780891,26.3818816 18.6593464,26.724113 C18.8406038,27.0663444 18.9312311,27.3917949 18.9312311,27.7004742 C18.9312311,28.5728288 18.6929148,29.2606365 18.2162751,29.763918 C17.7396353,30.2671995 17.1119572,30.5188364 16.3332218,30.5188364 C15.6618982,30.5188364 15.1449867,30.3376578 14.782472,29.9752951 C14.4199572,29.6129325 13.9298983,28.9553212 13.3122806,28.0024416 L8.45863519,20.0305028 Z M37.5402286,26.7140475 C36.8823314,27.5461395 36.1908785,28.2440127 35.465849,28.8076879 C34.7408195,29.3713632 33.9486695,29.7907581 33.0893753,30.0658854 C32.2300811,30.3410126 31.2499633,30.4785741 30.1489926,30.4785741 C28.8197718,30.4785741 27.6281903,30.203451 26.5742122,29.6531966 C25.5202342,29.1029422 24.7045882,28.3446761 24.1272499,27.3783757 C23.4424998,26.2107627 23.1001299,24.5331829 23.1001299,22.345586 L23.1001299,11.4546292 C23.1001299,10.3541204 23.3485159,9.53210631 23.8452954,8.98856231 C24.3420749,8.44501831 24.9999621,8.17325039 25.8189769,8.17325039 C26.6514182,8.17325039 27.3227318,8.44837347 27.8329377,8.99862789 C28.3431436,9.54888231 28.5982428,10.3675412 28.5982428,11.4546292 L28.5982428,20.2519455 C28.5982428,21.5269253 28.705653,22.5972212 28.9204765,23.4628653 C29.1353001,24.3285095 29.5213054,25.0062517 30.0785039,25.4961124 C30.6357025,25.985973 31.3909303,26.2308996 32.3442098,26.2308996 C33.2706364,26.2308996 34.143344,25.9557766 34.9623588,25.4055221 C35.7813736,24.8552677 36.3788426,24.1372636 36.7547839,23.2514882 C37.0635927,22.4730795 37.2179948,20.7686584 37.2179948,18.1381739 L37.2179948,11.4546292 C37.2179948,10.3675412 37.473094,9.54888231 37.9832999,8.99862789 C38.4935059,8.44837347 39.1581063,8.17325039 39.9771211,8.17325039 C40.7961359,8.17325039 41.4540232,8.44501831 41.9508026,8.98856231 C42.4475821,9.53210631 42.6959681,10.3541204 42.6959681,11.4546292 L42.6959681,27.3783757 C42.6959681,28.4252012 42.4576518,29.2103085 41.981012,29.7337212 C41.5043723,30.257134 40.8901204,30.5188364 40.1382379,30.5188364 C39.3863555,30.5188364 38.7653905,30.2470685 38.2753242,29.7035245 C37.785258,29.1599805 37.5402286,28.3983593 37.5402286,27.418638 L37.5402286,26.7140475 Z M63.2383679,27.3783757 L63.2383679,26.8348344 C62.4999119,27.6803473 61.7715367,28.368155 61.0532204,28.8982782 C60.3349042,29.4284013 59.5561805,29.8310205 58.717026,30.1061477 C57.8778714,30.3812749 56.9615285,30.5188364 55.9679695,30.5188364 C54.6521752,30.5188364 53.4337412,30.2403582 52.3126307,29.6833933 C51.1915203,29.1264285 50.2214722,28.3312557 49.4024574,27.2978511 C48.5834426,26.2644464 47.9624776,25.0498787 47.5395437,23.6541113 C47.1166099,22.258344 46.9051461,20.7485222 46.9051461,19.1246007 C46.9051461,15.6888658 47.744288,13.0114484 49.422597,11.0922684 C51.1009061,9.17308834 53.3095276,8.21351271 56.0485279,8.21351271 C57.6328517,8.21351271 58.9687656,8.48528063 60.0563099,9.02882463 C61.1438541,9.57236863 62.2045295,10.4078034 63.2383679,11.5351539 L63.2383679,3.42229696 C63.2383679,2.29494644 63.4632579,1.44273592 63.9130447,0.86563982 C64.3628315,0.288543721 65.003936,0 65.8363772,0 C66.6688185,0 67.3099229,0.265057604 67.7597098,0.795180764 C68.2094966,1.32530392 68.4343866,2.1070561 68.4343866,3.14046074 L68.4343866,27.3783757 C68.4343866,28.4252012 68.1927137,29.2103085 67.7093607,29.7337212 C67.2260077,30.257134 66.6016862,30.5188364 65.8363772,30.5188364 C65.0844948,30.5188364 64.4635298,30.2470685 63.9734635,29.7035245 C63.4833973,29.1599805 63.2383679,28.3849386 63.2383679,27.3783757 L63.2383679,27.3783757 Z M52.4233986,19.3057811 C52.4233986,20.7954943 52.6550018,22.0637446 53.118215,23.1105701 C53.5814283,24.1573955 54.2158196,24.945858 55.021408,25.4759812 C55.8269963,26.0061044 56.706417,26.271162 57.6596966,26.271162 C58.6264026,26.271162 59.5091799,26.019525 60.308055,25.5162435 C61.1069301,25.012962 61.7446779,24.2412753 62.2213177,23.2011603 C62.6979574,22.1610452 62.9362737,20.8625985 62.9362737,19.3057811 C62.9362737,17.8429096 62.6979574,16.5847248 62.2213177,15.5311889 C61.7446779,14.477653 61.1002169,13.6724147 60.2879153,13.1154498 C59.4756138,12.558485 58.5861233,12.2800067 57.6194173,12.2800067 C56.6124319,12.2800067 55.7128718,12.5651953 54.9207099,13.135581 C54.1285481,13.7059667 53.5142962,14.5246256 53.0779358,15.5915823 C52.6415755,16.6585391 52.4233986,17.8965929 52.4233986,19.3057811 Z M116.765072,23.3320128 C116.765072,24.8485677 116.395849,26.1470144 115.657393,27.227392 C114.918937,28.3077696 113.828053,29.1264285 112.384707,29.6833933 C110.941361,30.2403582 109.185876,30.5188364 107.1182,30.5188364 C105.144508,30.5188364 103.452798,30.2168721 102.043019,29.6129343 C100.633239,29.0089965 99.592703,28.2540856 98.9213793,27.3481789 C98.2500557,26.4422723 97.914399,25.533024 97.914399,24.620407 C97.914399,24.0164692 98.1292193,23.4997746 98.5588664,23.0703077 C98.9885135,22.6408409 99.5322775,22.4261107 100.190175,22.4261107 C100.767513,22.4261107 101.21058,22.5670274 101.519389,22.848865 C101.828198,23.1307026 102.123576,23.5266115 102.405531,24.0366034 C102.969443,25.0163246 103.644113,25.7477494 104.429562,26.2308996 C105.215011,26.7140499 106.285756,26.9556214 107.641829,26.9556214 C108.7428,26.9556214 109.645717,26.7106947 110.350607,26.2208341 C111.055496,25.7309734 111.407936,25.1706618 111.407936,24.5398823 C111.407936,23.5735819 111.04207,22.8689984 110.310327,22.4261107 C109.578585,21.983223 108.373577,21.5604729 106.695268,21.1578477 C104.802135,20.6881183 103.261471,20.1949098 102.073228,19.6782075 C100.884985,19.1615052 99.9350765,18.4804078 99.2234735,17.6348949 C98.5118704,16.789382 98.1560743,15.7492826 98.1560743,14.5145653 C98.1560743,13.4140565 98.4850179,12.373957 99.142915,11.3942358 C99.8008122,10.4145145 100.77086,9.63276231 102.053088,9.04895579 C103.335316,8.46514927 104.882694,8.17325039 106.695268,8.17325039 C108.118474,8.17325039 109.397326,8.32087741 110.531863,8.61613588 C111.6664,8.91139435 112.612952,9.30730317 113.371548,9.80387424 C114.130143,10.3004453 114.707473,10.8506915 115.103554,11.4546292 C115.499635,12.058567 115.697672,12.6490751 115.697672,13.2261712 C115.697672,13.8569507 115.486209,14.3736452 115.063275,14.7762704 C114.640341,15.1788956 114.039515,15.3802052 113.26078,15.3802052 C112.696868,15.3802052 112.216879,15.2191575 111.820798,14.8970574 C111.424717,14.5749572 110.97158,14.0918142 110.461375,13.4476139 C110.045154,12.9107804 109.555095,12.4813199 108.991183,12.1592198 C108.427271,11.8371196 107.661974,11.676072 106.695268,11.676072 C105.701709,11.676072 104.875993,11.887447 104.218096,12.3102035 C103.560199,12.7329599 103.231255,13.25972 103.231255,13.8904994 C103.231255,14.4675955 103.472928,14.940673 103.956281,15.3097461 C104.439634,15.6788192 105.090808,15.9841387 105.909823,16.2257138 C106.728838,16.4672889 107.856645,16.762543 109.293277,17.1114848 C110.998439,17.5275308 112.391415,18.0240944 113.472246,18.6011905 C114.553077,19.1782866 115.372079,19.859384 115.929278,20.6445031 C116.486477,21.4296222 116.765072,22.3254498 116.765072,23.3320128 Z M142,19.3460434 C142,20.9833858 141.744901,22.4932076 141.234695,23.8755541 C140.724489,25.2579006 139.986044,26.445627 139.019338,27.4387692 C138.052632,28.4319113 136.897973,29.1935325 135.555326,29.7236557 C134.212678,30.2537788 132.702223,30.5188364 131.023914,30.5188364 C129.359031,30.5188364 127.862002,30.2504237 126.532781,29.7135901 C125.203561,29.1767565 124.052258,28.408425 123.078839,27.4085724 C122.105419,26.4087199 121.366975,25.2277037 120.863482,23.8654885 C120.359989,22.5032733 120.108247,20.9968067 120.108247,19.3460434 C120.108247,17.6818593 120.363346,16.1586169 120.873552,14.7762704 C121.383758,13.3939239 122.115489,12.2129078 123.068769,11.2331865 C124.022048,10.2534652 125.176708,9.49855431 126.532781,8.96843115 C127.888855,8.43830799 129.385884,8.17325039 131.023914,8.17325039 C132.688796,8.17325039 134.199252,8.44166315 135.555326,8.97849673 C136.911399,9.51533031 138.072772,10.2803067 139.039478,11.2734488 C140.006184,12.2665909 140.741272,13.4476071 141.244765,14.8165327 C141.748257,16.1854584 142,17.6952801 142,19.3460434 L142,19.3460434 Z M136.481748,19.3460434 C136.481748,17.1047632 135.988332,15.3600802 135.001486,14.1119422 C134.014641,12.8638041 132.688796,12.2397444 131.023914,12.2397444 C129.949796,12.2397444 129.003244,12.5182227 128.184229,13.0751875 C127.365214,13.6321523 126.73418,14.4541664 126.291106,15.5412544 C125.848032,16.6283424 125.626499,17.8965927 125.626499,19.3460434 C125.626499,20.7820732 125.844676,22.0369029 126.281036,23.1105701 C126.717397,24.1842372 127.341718,25.0062513 128.15402,25.576637 C128.966321,26.1470227 129.922943,26.4322112 131.023914,26.4322112 C132.688796,26.4322112 134.014641,25.8047964 135.001486,24.5499479 C135.988332,23.2950994 136.481748,21.5604819 136.481748,19.3460434 L136.481748,19.3460434 Z" id="Logo-Text-Copy-2" sketch:type="MSShapeGroup"></path>
                <path d="M85.7564484,23.4261364 L85.2281746,23.4261364 L85.2281746,21.8409091 C85.2281746,20.6767578 84.2789326,19.7272727 83.1150794,19.7272727 C81.9512261,19.7272727 81.0019841,20.6767578 81.0019841,21.8409091 L81.0019841,23.4261364 L80.4737103,23.4261364 C80.1806834,23.4261364 79.9454365,23.6614435 79.9454365,23.9545455 L79.9454365,27.6534091 C79.9454365,27.946511 80.1806834,28.1818182 80.4737103,28.1818182 L85.7564484,28.1818182 C86.0494753,28.1818182 86.2847222,27.946511 86.2847222,27.6534091 L86.2847222,23.9545455 C86.2847222,23.6614435 86.0494753,23.4261364 85.7564484,23.4261364 L85.7564484,23.4261364 Z M83.5454503,25.8096254 C83.7938115,25.6623708 83.9603175,25.3915442 83.9603175,25.0818182 C83.9603175,24.6148865 83.5818915,24.2363636 83.1150794,24.2363636 C82.6482673,24.2363636 82.2698413,24.6148865 82.2698413,25.0818182 C82.2698413,25.3915442 82.4363472,25.6623708 82.6847084,25.8096254 L82.2698413,27.0545455 L83.9603175,27.0545455 L83.5454503,25.8096254 Z M82.0585317,21.8409091 C82.0585317,21.2547053 82.5290256,20.7840909 83.1150794,20.7840909 C83.7011331,20.7840909 84.171627,21.2547053 84.171627,21.8409091 L84.171627,23.4261364 L82.0585317,23.4261364 L82.0585317,21.8409091 Z" id="Logo-Lock" sketch:type="MSShapeGroup"></path>
            </g>
        </g>
    </g>
</svg>