<?xml version="1.0" encoding="UTF-8" standalone="no"?>
<svg width="234px" height="75px" viewBox="0 0 234 75" version="1.1" xmlns="http://www.w3.org/2000/svg" xmlns:xlink="http://www.w3.org/1999/xlink" xmlns:sketch="http://www.bohemiancoding.com/sketch/ns">
    <!-- Generator: Sketch 3.3.3 (12072) - http://www.bohemiancoding.com/sketch -->
    <title>k-logo</title>
    <desc>Created with Sketch.</desc>
    <defs></defs>
    <g id="Page-1" stroke="none" stroke-width="1" fill="none" fill-rule="evenodd" sketch:type="MSPage">
        <g id="Kudoso-Landing-Page-Desktop---latest-Copy-6" sketch:type="MSArtboardGroup" transform="translate(-56.000000, -39.000000)">
            <g id="k-logo" sketch:type="MSLayerGroup" transform="translate(55.000000, 39.000000)">
                <g id="Logo" transform="translate(9.000000, 0.000000)" fill="#FFFFFF" sketch:type="MSShapeGroup">
                    <path d="M126.975973,49.2063492 C138.716953,49.2063491 144.817297,41.0150663 144.817297,30.9106067 C144.817297,20.8061471 138.868699,12.6148642 126.975973,12.6148642 C115.083247,12.6148642 109.134648,20.8061471 109.134648,30.9106067 C109.134648,41.0150663 115.234993,49.2063494 126.975973,49.2063492 Z M124.419305,17.9995942 C124.419305,19.5436226 124.181103,20.3349975 123.523241,21.6094756 C122.865379,22.8839536 122.579664,22.5193122 121.742117,23.874326 C120.90457,25.2293397 120.952838,26.2577543 119.693033,28.0683148 C118.979624,29.0936096 118.223429,30.4233711 117.387853,30.9003879 C116.747891,31.2657316 116.305066,32.6897097 116.305066,32.6897097 C116.305066,32.6897097 117.20144,39.7285918 117.387853,40.5500107 C117.574265,41.3714295 117.436887,41.7990626 118.901017,42.3393325 C120.365147,42.8796024 120.460563,43.6782954 121.742117,43.9460735 C124.450606,44.512007 132.51992,44.1084787 132.983333,43.9460735 C133.446745,43.7836684 134.901259,43.3385003 134.90126,42.5182647 C134.90126,41.6980291 134.144896,40.670481 134.144896,40.670481 C134.144896,40.670481 136.240937,40.0224164 136.240937,38.8495862 C136.240937,37.6767559 135.080472,36.742259 135.080472,36.742259 C135.080472,36.742259 137.128999,35.7509742 137.128999,34.7479701 C137.128999,33.7449659 135.411086,32.3645702 135.411086,32.3645702 C135.411086,32.3645702 137.274726,31.6073257 137.274725,30.4390806 C137.274725,29.2708355 135.367533,28.4256025 134.184409,28.4256025 C132.934339,28.4256025 127.608381,28.6614688 126.805211,28.4256026 C126.00204,28.1897364 125.928566,27.3742542 126.324469,25.8516211 C126.608862,24.7578543 127.554473,23.0660349 127.828733,21.6094755 C128.484792,18.1252393 124.419304,16.4555657 124.419305,17.9995942 Z M13.4509049,31.7944489 L8.71106221,36.2680397 L8.71106221,43.2021054 C8.71106221,44.8850361 8.26804081,46.1791691 7.38198471,47.0845432 C6.49592861,47.9899172 5.47644561,48.4425975 4.32350514,48.4425975 C2.97840793,48.4425975 1.92156168,47.9952429 1.1529347,47.1005203 C0.384307725,46.2057976 0,44.8850364 0,43.138197 L0,5.94348492 C0,4.00491921 0.373632511,2.52971414 1.12090874,1.51782545 C1.86818497,0.505936757 2.93570643,0 4.32350514,0 C5.66860236,0 6.73612382,0.458005906 7.52610154,1.37403146 C8.31607927,2.29005701 8.71106221,3.64277213 8.71106221,5.4322174 L8.71106221,26.585911 L18.5430332,16.2966522 C19.7600259,15.018477 20.6887696,14.1450704 21.329292,13.6764062 C21.9698145,13.2077419 22.7491052,12.9734133 23.6671874,12.9734133 C24.7560756,12.9734133 25.6634689,13.3195806 26.3893944,14.0119255 C27.1153198,14.7042704 27.4782771,15.5723513 27.4782771,16.6161944 C27.4782771,17.8943696 26.2933283,19.5985776 23.9233951,21.7288696 L19.2796303,25.9787809 L28.2469003,40.0386376 C28.9087735,41.0824807 29.3838205,41.8760026 29.6720557,42.419227 C29.9602908,42.9624515 30.1044062,43.4790395 30.1044062,43.9690067 C30.1044062,45.3536965 29.7254361,46.4454548 28.9674845,47.2443143 C28.2095329,48.0431737 27.2114003,48.4425975 25.9730568,48.4425975 C24.9055193,48.4425975 24.0835278,48.1550124 23.5070576,47.5798336 C22.9305874,47.0046547 22.1512967,45.9608273 21.1691622,44.44832 L13.4509049,31.7944489 Z M57.2941829,42.4032499 C56.2479962,43.724031 55.1484491,44.8317662 53.9955086,45.7264888 C52.8425681,46.6212114 51.5828928,47.2869177 50.2164449,47.7236276 C48.8499969,48.1603374 47.2914156,48.3786891 45.5406541,48.3786891 C43.4269299,48.3786891 41.5320793,47.9419858 39.8560455,47.068566 C38.1800117,46.1951463 36.8829731,44.9915494 35.9648909,43.4577392 C34.8760027,41.6043852 34.3315667,38.9415601 34.3315667,35.4691842 L34.3315667,18.1819512 C34.3315667,16.4351117 34.7265496,15.1303275 35.5165274,14.2675592 C36.3065051,13.404791 37.3526761,12.9734133 38.6550719,12.9734133 C39.9788183,12.9734133 41.0463398,13.4101166 41.8576683,14.2835363 C42.6689967,15.156956 43.0746549,16.4564147 43.0746549,18.1819512 L43.0746549,32.1459453 C43.0746549,34.1697227 43.2454583,35.8686051 43.5870703,37.2426434 C43.9286823,38.6166817 44.5425071,39.692463 45.4285632,40.4700196 C46.3146193,41.2475762 47.515581,41.6363486 49.0314842,41.6363486 C50.5046859,41.6363486 51.8924638,41.1996453 53.1948595,40.3262256 C54.4972552,39.4528059 55.4473493,38.3131168 56.0451703,36.9071241 C56.5362376,35.6715547 56.7817675,32.9661245 56.7817675,28.7907522 L56.7817675,18.1819512 C56.7817675,16.4564147 57.1874256,15.156956 57.9987541,14.2835363 C58.8100826,13.4101166 59.8669288,12.9734133 61.1693246,12.9734133 C62.4717203,12.9734133 63.5178913,13.404791 64.307869,14.2675592 C65.0978468,15.1303275 65.4928297,16.4351117 65.4928297,18.1819512 L65.4928297,43.4577392 C65.4928297,45.1193669 65.1138596,46.3655691 64.355908,47.1963829 C63.5979564,48.0271968 62.6211742,48.4425975 61.4255323,48.4425975 C60.2298903,48.4425975 59.242433,48.0112198 58.4631306,47.1484516 C57.6838282,46.2856833 57.2941829,45.0767608 57.2941829,43.5216476 L57.2941829,42.4032499 Z M96.557837,42.5949752 C95.3835458,43.9370592 94.225285,45.0288175 93.0830199,45.8702828 C91.9407548,46.7117481 90.7024299,47.3508261 89.3680081,47.787536 C88.0335862,48.2242459 86.5764194,48.4425975 84.996464,48.4425975 C82.9040905,48.4425975 80.9665391,48.0005685 79.1837515,47.1164974 C77.4009639,46.2324262 75.8583954,44.9702471 74.5559997,43.3299223 C73.253604,41.6895975 72.2661466,39.7617122 71.593598,37.5462085 C70.9210494,35.3307048 70.5847802,32.9341623 70.5847802,30.356509 C70.5847802,24.9029615 71.919182,20.6530928 74.5880257,17.6067752 C77.2568693,14.5604577 80.7690149,13.0373218 85.1245678,13.0373218 C87.6439563,13.0373218 89.768324,13.4686994 91.4977347,14.3314677 C93.2271454,15.1942359 94.9138293,16.5203228 96.557837,18.3097681 L96.557837,5.4322174 C96.557837,3.64277213 96.9154567,2.29005701 97.6307068,1.37403146 C98.3459569,0.458005906 99.3654399,0 100.689186,0 C102.012933,0 103.032416,0.420726356 103.747666,1.26219169 C104.462916,2.10365702 104.820536,3.34453349 104.820536,4.98485832 L104.820536,43.4577392 C104.820536,45.1193669 104.436228,46.3655691 103.667601,47.1963829 C102.898974,48.0271968 101.906179,48.4425975 100.689186,48.4425975 C99.4935444,48.4425975 98.506087,48.0112198 97.7267847,47.1484516 C96.9474823,46.2856833 96.557837,45.0554582 96.557837,43.4577392 L96.557837,42.5949752 Z M79.3598943,30.644097 C79.3598943,33.0087211 79.7281892,35.0218168 80.4647901,36.6834445 C81.2013909,38.3450723 82.2101987,39.5966001 83.4912437,40.4380654 C84.7722886,41.2795307 86.1707417,41.7002571 87.686645,41.7002571 C89.2238989,41.7002571 90.6276896,41.3008333 91.8980592,40.5019738 C93.1684288,39.7031143 94.1825742,38.4782148 94.9405258,36.8272385 C95.6984774,35.1762623 96.0774475,33.1152357 96.0774475,30.644097 C96.0774475,28.3220787 95.6984774,26.3249599 94.9405258,24.6526807 C94.1825742,22.9804015 93.1577536,21.7022455 91.8660333,20.8181743 C90.5743129,19.9341031 89.159847,19.4920742 87.622593,19.4920742 C86.0212868,19.4920742 84.5908081,19.9447545 83.3311138,20.8501285 C82.0714196,21.7555026 81.0946375,23.0549613 80.4007381,24.7485434 C79.7068388,26.4421255 79.3598943,28.4072904 79.3598943,30.644097 Z M178.472943,37.034941 C178.472943,39.4421709 177.885806,41.5031975 176.711515,43.2180825 C175.537224,44.9329676 173.802501,46.2324262 171.507296,47.1164974 C169.21209,48.0005685 166.420522,48.4425975 163.132506,48.4425975 C159.993946,48.4425975 157.303792,47.963289 155.061963,47.0046576 C152.820135,46.0460262 151.165476,44.8477549 150.097939,43.4098079 C149.030402,41.9718608 148.496641,40.5286096 148.496641,39.080011 C148.496641,38.1213797 148.838248,37.3012295 149.521472,36.6195361 C150.204696,35.9378427 151.069388,35.5970011 152.115575,35.5970011 C153.033657,35.5970011 153.738221,35.8206784 154.229288,36.2680397 C154.720356,36.715401 155.190065,37.3438277 155.638431,38.1533387 C156.535162,39.7084518 157.608021,40.8694435 158.85704,41.6363486 C160.106059,42.4032538 161.808756,42.7867006 163.965181,42.7867006 C165.715943,42.7867006 167.151759,42.3979281 168.272674,41.6203715 C169.393588,40.842815 169.954037,39.9534314 169.954037,38.9521942 C169.954037,37.4183839 169.372237,36.2999974 168.208622,35.5970011 C167.045006,34.8940047 165.128805,34.2229728 162.459961,33.5838852 C159.449505,32.838283 156.999544,32.0554125 155.110002,31.23525 C153.220461,30.4150876 151.709918,29.3339807 150.578328,27.9918967 C149.446739,26.6498128 148.880952,24.9988612 148.880952,23.0389926 C148.880952,21.2921532 149.404038,19.6412017 150.450225,18.0860885 C151.496411,16.5309754 153.03898,15.2900989 155.077976,14.3634219 C157.116973,13.4367449 159.57761,12.9734133 162.459961,12.9734133 C164.723141,12.9734133 166.756769,13.2077419 168.560907,13.6764062 C170.365046,14.1450704 171.870251,14.7734971 173.076568,15.5617051 C174.282886,16.3499132 175.200954,17.2233198 175.830801,18.1819512 C176.460648,19.1405826 176.775567,20.077897 176.775567,20.9939225 C176.775567,21.9951598 176.439298,22.8153099 175.766749,23.4543975 C175.094201,24.0934851 174.138769,24.4130241 172.900425,24.4130241 C172.003694,24.4130241 171.240416,24.1573929 170.610569,23.6461228 C169.980722,23.1348527 169.260145,22.3679591 168.448816,21.345419 C167.786943,20.4933022 167.007652,19.8116189 166.110921,19.3003489 C165.21419,18.7890788 163.997215,18.5334476 162.459961,18.5334476 C160.880006,18.5334476 159.566954,18.8689635 158.520768,19.5400055 C157.474581,20.2110475 156.951495,21.0471746 156.951495,22.0484118 C156.951495,22.9644373 157.335803,23.715354 158.10443,24.3011843 C158.873057,24.8870146 159.908553,25.3716488 161.210948,25.7551013 C162.513344,26.1385539 164.30678,26.6072111 166.59131,27.161087 C169.302856,27.8214775 171.517963,28.6096737 173.236698,29.5256993 C174.955433,30.4417248 176.257809,31.5228318 177.143866,32.7690526 C178.029922,34.0152734 178.472943,35.437222 178.472943,37.034941 Z M217,30.7080054 C217,33.3069616 216.594342,35.7035042 215.783013,37.8977049 C214.971685,40.0919057 213.797411,41.9771858 212.260157,43.5536018 C210.722903,45.1300179 208.886766,46.3389405 206.751692,47.1804058 C204.616617,48.0218711 202.214693,48.4425975 199.54585,48.4425975 C196.898357,48.4425975 194.517784,48.0165455 192.40406,47.1644287 C190.290335,46.3123119 188.459536,45.092738 186.911607,43.5056705 C185.363677,41.918603 184.189404,40.0439742 183.388751,37.8817278 C182.588098,35.7194814 182.187777,33.3282646 182.187777,30.7080054 C182.187777,28.0664433 182.593435,25.6485982 183.404764,23.4543975 C184.216092,21.2601967 185.379691,19.3855679 186.895594,17.8304548 C188.411497,16.2753416 190.247634,15.0770703 192.40406,14.235605 C194.560485,13.3941397 196.941058,12.9734133 199.54585,12.9734133 C202.193343,12.9734133 204.595266,13.3994653 206.751692,14.2515821 C208.908117,15.1036989 210.754929,16.3179471 212.292183,17.8943632 C213.829437,19.4707793 214.998373,21.3454081 215.799026,23.5183059 C216.599679,25.6912037 217,28.0877463 217,30.7080054 L217,30.7080054 Z M208.224886,30.7080054 C208.224886,27.1504178 207.440258,24.3810798 205.870978,22.3999082 C204.301697,20.4187367 202.193343,19.4281658 199.54585,19.4281658 C197.83779,19.4281658 196.332584,19.8701947 195.030189,20.7542659 C193.727793,21.6383371 192.724323,22.9431213 192.019748,24.6686578 C191.315173,26.3941943 190.962891,28.4072901 190.962891,30.7080054 C190.962891,32.9874178 191.309836,34.979211 192.003735,36.6834445 C192.697634,38.3876781 193.690429,39.6924624 194.98215,40.5978365 C196.27387,41.5032106 197.795088,41.9558908 199.54585,41.9558908 C202.193343,41.9558908 204.301697,40.9599943 205.870978,38.9681713 C207.440258,36.9763483 208.224886,34.2229872 208.224886,30.7080054 L208.224886,30.7080054 Z" id="Logo-Text-Copy"></path>
                    <path d="M130.764568,37.1843434 L129.924508,37.1843434 L129.924508,34.6681097 C129.924508,32.8202505 128.415025,31.3131313 126.564268,31.3131313 C124.713511,31.3131313 123.204028,32.8202505 123.204028,34.6681097 L123.204028,37.1843434 L122.363968,37.1843434 C121.897998,37.1843434 121.523908,37.5578469 121.523908,38.023088 L121.523908,43.8943001 C121.523908,44.3595413 121.897998,44.7330447 122.363968,44.7330447 L130.764568,44.7330447 C131.230539,44.7330447 131.604628,44.3595413 131.604628,43.8943001 L131.604628,38.023088 C131.604628,37.5578469 131.230539,37.1843434 130.764568,37.1843434 L130.764568,37.1843434 Z M127.248643,40.9676593 C127.643587,40.7339219 127.908364,40.3040385 127.908364,39.8124098 C127.908364,39.0712485 127.306592,38.4704185 126.564268,38.4704185 C125.821944,38.4704185 125.220172,39.0712485 125.220172,39.8124098 C125.220172,40.3040385 125.48495,40.7339219 125.879893,40.9676593 L125.220172,42.9437229 L127.908364,42.9437229 L127.248643,40.9676593 Z M124.884148,34.6681097 C124.884148,33.7376274 125.632327,32.9906205 126.564268,32.9906205 C127.49621,32.9906205 128.244388,33.7376274 128.244388,34.6681097 L128.244388,37.1843434 L124.884148,37.1843434 L124.884148,34.6681097 Z" id="Logo-Lock"></path>
                </g>
                <path d="M8.456,71.704 L8.456,61.032 L6.68,61.032 L6.68,65.432 L2.776,65.432 L2.776,61.032 L1,61.032 L1,71.704 L2.776,71.704 L2.776,67 L6.68,67 L6.68,71.704 L8.456,71.704 Z M13.8388572,71.896 C14.8788572,71.896 15.8548572,71.464 16.5108572,70.712 L15.7428572,69.752 C15.2948572,70.28 14.6068572,70.584 13.9988572,70.584 C12.7508572,70.584 12.0468572,69.624 11.9828572,68.36 L16.8948572,68.36 L16.8948572,67.896 C16.8948572,65.56 15.7748572,63.784 13.6788572,63.784 C11.6148572,63.784 10.3668572,65.592 10.3668572,67.832 C10.3668572,70.232 11.7108572,71.896 13.8388572,71.896 L13.8388572,71.896 Z M15.3428572,67.224 L11.9668572,67.224 C12.0148572,66.296 12.4628572,65.08 13.6628572,65.08 C14.8948572,65.08 15.3268572,66.264 15.3428572,67.224 L15.3428572,67.224 Z M20.2777144,71.704 L20.2777144,61.032 L18.6777144,61.032 L18.6777144,71.704 L20.2777144,71.704 Z M26.0925715,71.896 C27.8365715,71.896 28.9085715,70.296 28.9085715,67.832 C28.9085715,65.336 27.8365715,63.784 26.0925715,63.784 C25.3085715,63.784 24.5565715,64.232 24.1085715,65 L24.1085715,63.976 L22.5085715,63.976 L22.5085715,74.648 L24.1085715,74.648 L24.1085715,70.664 C24.5725715,71.496 25.3245715,71.896 26.0925715,71.896 L26.0925715,71.896 Z M25.6125715,70.488 C25.0045715,70.488 24.3805715,69.992 24.1085715,69.416 L24.1085715,66.248 C24.3805715,65.656 25.0045715,65.192 25.6125715,65.192 C26.7165715,65.192 27.2605715,66.344 27.2605715,67.832 C27.2605715,69.32 26.7165715,70.488 25.6125715,70.488 L25.6125715,70.488 Z M31.5234287,63 C32.0674287,63 32.5154287,62.552 32.5154287,62.008 C32.5154287,61.448 32.0674287,61 31.5234287,61 C30.9794287,61 30.5154287,61.448 30.5154287,62.008 C30.5154287,62.552 30.9794287,63 31.5234287,63 L31.5234287,63 Z M32.3234287,71.704 L32.3234287,63.976 L30.7234287,63.976 L30.7234287,71.704 L32.3234287,71.704 Z M40.4262859,71.704 L40.4262859,65.88 C40.4262859,64.552 39.7862859,63.784 38.3942859,63.784 C37.4342859,63.784 36.5702859,64.392 36.1542859,65.016 L36.1542859,63.976 L34.5542859,63.976 L34.5542859,71.704 L36.1542859,71.704 L36.1542859,66.264 C36.4422859,65.72 37.0342859,65.192 37.7222859,65.192 C38.4102859,65.192 38.8262859,65.528 38.8262859,66.44 L38.8262859,71.704 L40.4262859,71.704 Z M45.3291431,74.84 C46.9931431,74.84 48.6571431,74.104 48.6571431,71.432 L48.6571431,63.976 L47.0731431,63.976 L47.0731431,65.016 C46.5931431,64.184 45.8411431,63.784 45.0891431,63.784 C43.3451431,63.784 42.2731431,65.304 42.2731431,67.752 C42.2731431,70.232 43.3611431,71.72 45.0891431,71.72 C45.8571431,71.72 46.6091431,71.24 47.0731431,70.456 L47.0731431,71.56 C47.0731431,72.968 46.2091431,73.496 45.2491431,73.496 C44.4491431,73.496 43.7771431,73.208 43.2491431,72.632 L42.5931431,73.864 C43.3611431,74.584 44.2251431,74.84 45.3291431,74.84 L45.3291431,74.84 Z M45.5691431,70.296 C44.4651431,70.296 43.9211431,69.224 43.9211431,67.752 C43.9211431,66.264 44.4651431,65.192 45.5691431,65.192 C46.1771431,65.192 46.8011431,65.672 47.0731431,66.248 L47.0731431,69.24 C46.8011431,69.816 46.1771431,70.296 45.5691431,70.296 L45.5691431,70.296 Z M56.4788575,71.704 L56.4788575,67.672 L58.3348575,67.672 C60.4308575,67.672 61.4868575,66.136 61.4868575,64.344 C61.4868575,62.568 60.4308575,61.032 58.3348575,61.032 L54.7028575,61.032 L54.7028575,71.704 L56.4788575,71.704 Z M58.1268575,66.104 L56.4788575,66.104 L56.4788575,62.584 L58.1268575,62.584 C59.0708575,62.584 59.6788575,63.288 59.6788575,64.344 C59.6788575,65.4 59.0708575,66.104 58.1268575,66.104 L58.1268575,66.104 Z M68.4697146,71.704 L68.4697146,66.424 C68.4697146,64.536 67.2857146,63.784 65.6697146,63.784 C64.6777146,63.784 63.6217146,64.12 62.8377146,64.904 L63.4617146,66.024 C64.0537146,65.416 64.6937146,65.144 65.3817146,65.144 C66.3417146,65.144 66.8857146,65.688 66.8857146,66.616 L66.8857146,67.736 C66.4377146,67.112 65.6377146,66.808 64.8537146,66.808 C63.6057146,66.808 62.4857146,67.656 62.4857146,69.32 C62.4857146,70.968 63.6057146,71.896 64.8537146,71.896 C65.6377146,71.896 66.4217146,71.56 66.8857146,70.92 L66.8857146,71.704 L68.4697146,71.704 Z M65.4297146,70.792 C64.5977146,70.792 64.0857146,70.184 64.0857146,69.352 C64.0857146,68.52 64.5977146,67.912 65.4297146,67.912 C66.0057146,67.912 66.5817146,68.232 66.8857146,68.776 L66.8857146,69.944 C66.5817146,70.472 66.0057146,70.792 65.4297146,70.792 L65.4297146,70.792 Z M72.3005718,71.704 L72.3005718,66.408 C72.6205718,65.832 73.3565718,65.336 74.0125718,65.336 C74.1565718,65.336 74.3005718,65.352 74.4285718,65.384 L74.4285718,63.8 C73.5645718,63.8 72.7485718,64.36 72.3005718,65.112 L72.3005718,63.976 L70.7005718,63.976 L70.7005718,71.704 L72.3005718,71.704 Z M79.059429,71.896 C80.099429,71.896 81.075429,71.464 81.731429,70.712 L80.963429,69.752 C80.515429,70.28 79.827429,70.584 79.219429,70.584 C77.971429,70.584 77.267429,69.624 77.203429,68.36 L82.115429,68.36 L82.115429,67.896 C82.115429,65.56 80.995429,63.784 78.899429,63.784 C76.835429,63.784 75.587429,65.592 75.587429,67.832 C75.587429,70.232 76.931429,71.896 79.059429,71.896 L79.059429,71.896 Z M80.563429,67.224 L77.187429,67.224 C77.235429,66.296 77.683429,65.08 78.883429,65.08 C80.115429,65.08 80.547429,66.264 80.563429,67.224 L80.563429,67.224 Z M89.7702862,71.704 L89.7702862,65.88 C89.7702862,64.552 89.1302862,63.784 87.7382862,63.784 C86.7782862,63.784 85.9142862,64.392 85.4982862,65.016 L85.4982862,63.976 L83.8982862,63.976 L83.8982862,71.704 L85.4982862,71.704 L85.4982862,66.264 C85.7862862,65.72 86.3782862,65.192 87.0662862,65.192 C87.7542862,65.192 88.1702862,65.528 88.1702862,66.44 L88.1702862,71.704 L89.7702862,71.704 Z M94.0811434,71.896 C94.7371434,71.896 95.1851434,71.72 95.4731434,71.432 L95.0891434,70.232 C94.9771434,70.376 94.7371434,70.488 94.4811434,70.488 C94.0651434,70.488 93.8891434,70.168 93.8891434,69.64 L93.8891434,65.368 L95.1691434,65.368 L95.1691434,63.976 L93.8891434,63.976 L93.8891434,61.864 L92.2891434,61.864 L92.2891434,63.976 L91.2811434,63.976 L91.2811434,65.368 L92.2891434,65.368 L92.2891434,69.976 C92.2891434,71.24 92.8651434,71.896 94.0811434,71.896 L94.0811434,71.896 Z M99.0960005,71.896 C100.792001,71.896 101.864001,70.92 101.864001,69.592 C101.864001,66.728 98.0240005,67.304 98.0240005,65.944 C98.0240005,65.432 98.4880005,65.048 99.2080005,65.048 C99.9760005,65.048 100.664001,65.4 101.048001,65.864 L101.720001,64.776 C101.112001,64.184 100.248001,63.784 99.1760005,63.784 C97.4800005,63.784 96.5200005,64.792 96.5200005,65.992 C96.5200005,68.776 100.344001,68.136 100.344001,69.624 C100.344001,70.232 99.8640005,70.632 99.0640005,70.632 C98.2640005,70.632 97.4480005,70.184 96.9840005,69.672 L96.2640005,70.792 C96.9200005,71.496 97.9120005,71.896 99.0960005,71.896 L99.0960005,71.896 Z M116.821715,71.704 L116.821715,61.032 L114.437715,61.032 L112.133715,67.528 L109.845715,61.032 L107.445715,61.032 L107.445715,71.704 L109.221715,71.704 L109.221715,64.344 L111.781715,71.704 L112.469715,71.704 L115.061715,64.344 L115.061715,71.704 L116.821715,71.704 Z M124.700572,71.704 L124.700572,66.424 C124.700572,64.536 123.516572,63.784 121.900572,63.784 C120.908572,63.784 119.852572,64.12 119.068572,64.904 L119.692572,66.024 C120.284572,65.416 120.924572,65.144 121.612572,65.144 C122.572572,65.144 123.116572,65.688 123.116572,66.616 L123.116572,67.736 C122.668572,67.112 121.868572,66.808 121.084572,66.808 C119.836572,66.808 118.716572,67.656 118.716572,69.32 C118.716572,70.968 119.836572,71.896 121.084572,71.896 C121.868572,71.896 122.652572,71.56 123.116572,70.92 L123.116572,71.704 L124.700572,71.704 Z M121.660572,70.792 C120.828572,70.792 120.316572,70.184 120.316572,69.352 C120.316572,68.52 120.828572,67.912 121.660572,67.912 C122.236572,67.912 122.812572,68.232 123.116572,68.776 L123.116572,69.944 C122.812572,70.472 122.236572,70.792 121.660572,70.792 L121.660572,70.792 Z M132.803429,71.704 L132.803429,65.88 C132.803429,64.552 132.163429,63.784 130.771429,63.784 C129.811429,63.784 128.947429,64.392 128.531429,65.016 L128.531429,63.976 L126.931429,63.976 L126.931429,71.704 L128.531429,71.704 L128.531429,66.264 C128.819429,65.72 129.411429,65.192 130.099429,65.192 C130.787429,65.192 131.203429,65.528 131.203429,66.44 L131.203429,71.704 L132.803429,71.704 Z M140.618286,71.704 L140.618286,66.424 C140.618286,64.536 139.434286,63.784 137.818286,63.784 C136.826286,63.784 135.770286,64.12 134.986286,64.904 L135.610286,66.024 C136.202286,65.416 136.842286,65.144 137.530286,65.144 C138.490286,65.144 139.034286,65.688 139.034286,66.616 L139.034286,67.736 C138.586286,67.112 137.786286,66.808 137.002286,66.808 C135.754286,66.808 134.634286,67.656 134.634286,69.32 C134.634286,70.968 135.754286,71.896 137.002286,71.896 C137.786286,71.896 138.570286,71.56 139.034286,70.92 L139.034286,71.704 L140.618286,71.704 Z M137.578286,70.792 C136.746286,70.792 136.234286,70.184 136.234286,69.352 C136.234286,68.52 136.746286,67.912 137.578286,67.912 C138.154286,67.912 138.730286,68.232 139.034286,68.776 L139.034286,69.944 C138.730286,70.472 138.154286,70.792 137.578286,70.792 L137.578286,70.792 Z M145.521144,74.84 C147.185144,74.84 148.849144,74.104 148.849144,71.432 L148.849144,63.976 L147.265144,63.976 L147.265144,65.016 C146.785144,64.184 146.033144,63.784 145.281144,63.784 C143.537144,63.784 142.465144,65.304 142.465144,67.752 C142.465144,70.232 143.553144,71.72 145.281144,71.72 C146.049144,71.72 146.801144,71.24 147.265144,70.456 L147.265144,71.56 C147.265144,72.968 146.401144,73.496 145.441144,73.496 C144.641144,73.496 143.969144,73.208 143.441144,72.632 L142.785144,73.864 C143.553144,74.584 144.417144,74.84 145.521144,74.84 L145.521144,74.84 Z M145.761144,70.296 C144.657144,70.296 144.113144,69.224 144.113144,67.752 C144.113144,66.264 144.657144,65.192 145.761144,65.192 C146.369144,65.192 146.993144,65.672 147.265144,66.248 L147.265144,69.24 C146.993144,69.816 146.369144,70.296 145.761144,70.296 L145.761144,70.296 Z M154.168001,71.896 C155.208001,71.896 156.184001,71.464 156.840001,70.712 L156.072001,69.752 C155.624001,70.28 154.936001,70.584 154.328001,70.584 C153.080001,70.584 152.376001,69.624 152.312001,68.36 L157.224001,68.36 L157.224001,67.896 C157.224001,65.56 156.104001,63.784 154.008001,63.784 C151.944001,63.784 150.696001,65.592 150.696001,67.832 C150.696001,70.232 152.040001,71.896 154.168001,71.896 L154.168001,71.896 Z M155.672001,67.224 L152.296001,67.224 C152.344001,66.296 152.792001,65.08 153.992001,65.08 C155.224001,65.08 155.656001,66.264 155.672001,67.224 L155.672001,67.224 Z M166.373715,71.704 L166.373715,62.584 L168.821715,62.584 L168.821715,61.032 L162.165715,61.032 L162.165715,62.584 L164.613715,62.584 L164.613715,71.704 L166.373715,71.704 Z M172.316572,71.896 C173.356572,71.896 174.332572,71.464 174.988572,70.712 L174.220572,69.752 C173.772572,70.28 173.084572,70.584 172.476572,70.584 C171.228572,70.584 170.524572,69.624 170.460572,68.36 L175.372572,68.36 L175.372572,67.896 C175.372572,65.56 174.252572,63.784 172.156572,63.784 C170.092572,63.784 168.844572,65.592 168.844572,67.832 C168.844572,70.232 170.188572,71.896 172.316572,71.896 L172.316572,71.896 Z M173.820572,67.224 L170.444572,67.224 C170.492572,66.296 170.940572,65.08 172.140572,65.08 C173.372572,65.08 173.804572,66.264 173.820572,67.224 L173.820572,67.224 Z M180.16343,71.896 C181.31543,71.896 182.05143,71.432 182.51543,70.856 L181.69943,69.768 C181.31543,70.248 180.88343,70.488 180.32343,70.488 C179.10743,70.488 178.41943,69.304 178.41943,67.832 C178.41943,66.36 179.10743,65.192 180.32343,65.192 C180.88343,65.192 181.31543,65.416 181.69943,65.912 L182.51543,64.824 C182.05143,64.248 181.31543,63.784 180.16343,63.784 C178.09943,63.784 176.77143,65.496 176.77143,67.832 C176.77143,70.168 178.09943,71.896 180.16343,71.896 L180.16343,71.896 Z M190.010287,71.704 L190.010287,65.864 C190.010287,64.504 189.370287,63.784 187.994287,63.784 C187.034287,63.784 186.154287,64.392 185.738287,65.016 L185.738287,61.032 L184.138287,61.032 L184.138287,71.704 L185.738287,71.704 L185.738287,66.264 C186.042287,65.72 186.634287,65.192 187.306287,65.192 C187.994287,65.192 188.426287,65.512 188.426287,66.408 L188.426287,71.704 L190.010287,71.704 Z M198.113144,71.704 L198.113144,65.88 C198.113144,64.552 197.473144,63.784 196.081144,63.784 C195.121144,63.784 194.257144,64.392 193.841144,65.016 L193.841144,63.976 L192.241144,63.976 L192.241144,71.704 L193.841144,71.704 L193.841144,66.264 C194.129144,65.72 194.721144,65.192 195.409144,65.192 C196.097144,65.192 196.513144,65.528 196.513144,66.44 L196.513144,71.704 L198.113144,71.704 Z M203.304001,71.896 C205.496001,71.896 206.648001,70.008 206.648001,67.832 C206.648001,65.656 205.496001,63.784 203.304001,63.784 C201.112001,63.784 199.960001,65.656 199.960001,67.832 C199.960001,70.008 201.112001,71.896 203.304001,71.896 L203.304001,71.896 Z M203.304001,70.488 C202.136001,70.488 201.608001,69.224 201.608001,67.832 C201.608001,66.44 202.136001,65.192 203.304001,65.192 C204.472001,65.192 205.000001,66.44 205.000001,67.832 C205.000001,69.224 204.472001,70.488 203.304001,70.488 L203.304001,70.488 Z M210.094858,71.704 L210.094858,61.032 L208.494858,61.032 L208.494858,71.704 L210.094858,71.704 Z M215.285715,71.896 C217.477715,71.896 218.629715,70.008 218.629715,67.832 C218.629715,65.656 217.477715,63.784 215.285715,63.784 C213.093715,63.784 211.941715,65.656 211.941715,67.832 C211.941715,70.008 213.093715,71.896 215.285715,71.896 L215.285715,71.896 Z M215.285715,70.488 C214.117715,70.488 213.589715,69.224 213.589715,67.832 C213.589715,66.44 214.117715,65.192 215.285715,65.192 C216.453715,65.192 216.981715,66.44 216.981715,67.832 C216.981715,69.224 216.453715,70.488 215.285715,70.488 L215.285715,70.488 Z M223.148573,74.84 C224.812573,74.84 226.476573,74.104 226.476573,71.432 L226.476573,63.976 L224.892573,63.976 L224.892573,65.016 C224.412573,64.184 223.660573,63.784 222.908573,63.784 C221.164573,63.784 220.092573,65.304 220.092573,67.752 C220.092573,70.232 221.180573,71.72 222.908573,71.72 C223.676573,71.72 224.428573,71.24 224.892573,70.456 L224.892573,71.56 C224.892573,72.968 224.028573,73.496 223.068573,73.496 C222.268573,73.496 221.596573,73.208 221.068573,72.632 L220.412573,73.864 C221.180573,74.584 222.044573,74.84 223.148573,74.84 L223.148573,74.84 Z M223.388573,70.296 C222.284573,70.296 221.740573,69.224 221.740573,67.752 C221.740573,66.264 222.284573,65.192 223.388573,65.192 C223.996573,65.192 224.620573,65.672 224.892573,66.248 L224.892573,69.24 C224.620573,69.816 223.996573,70.296 223.388573,70.296 L223.388573,70.296 Z M228.43543,74.728 C228.64343,74.792 229.05943,74.84 229.29943,74.84 C230.38743,74.84 231.13943,74.456 231.57143,73.16 L234.62743,63.976 L232.93143,63.976 L231.20343,69.784 L229.49143,63.976 L227.79543,63.976 L230.38743,71.864 L230.06743,72.792 C229.89143,73.272 229.61943,73.432 229.18743,73.432 C229.04343,73.432 228.81943,73.4 228.67543,73.32 L228.43543,74.728 Z" id="Helping-Parents-Mana-Copy" fill="#FFC662" sketch:type="MSShapeGroup"></path>
            </g>
        </g>
    </g>
</svg>