<?xml version="1.0" encoding="UTF-8" standalone="no"?>
<svg width="174px" height="40px" viewBox="0 0 174 40" version="1.1" xmlns="http://www.w3.org/2000/svg" xmlns:xlink="http://www.w3.org/1999/xlink" xmlns:sketch="http://www.bohemiancoding.com/sketch/ns">
    <!-- Generator: Sketch 3.3.3 (12072) - http://www.bohemiancoding.com/sketch -->
    <title>k-logo-footer</title>
    <desc>Created with Sketch.</desc>
    <defs></defs>
    <g id="Page-1" stroke="none" stroke-width="1" fill="none" fill-rule="evenodd" sketch:type="MSPage">
        <g id="Kudoso-Landing-Page-Desktop---latest-Copy-6" sketch:type="MSArtboardGroup" transform="translate(-252.000000, -3624.000000)" fill="#111111">
            <g id="k-logo-footer" sketch:type="MSLayerGroup" transform="translate(252.000000, 3624.000000)">
                <g id="logo" sketch:type="MSShapeGroup">
                    <path d="M101.814835,39.3650794 C111.229262,39.3650792 116.120782,32.812053 116.120782,24.7284853 C116.120782,16.6449177 111.350938,10.0918913 101.814835,10.0918913 C92.2787325,10.0918913 87.5088886,16.6449177 87.5088886,24.7284853 C87.5088886,32.812053 92.4004089,39.3650795 101.814835,39.3650794 Z M99.7647882,14.3996753 C99.7647887,15.6348981 99.5737875,16.267998 99.0462853,17.2875805 C98.5187832,18.3071629 98.2896845,18.0154497 97.618103,19.0994608 C96.9465214,20.1834718 96.9852249,21.0062035 95.975059,22.4546519 C95.4030164,23.2748876 94.796667,24.3386969 94.1266654,24.7203103 C93.613516,25.0125853 93.2584398,26.1517678 93.2584398,26.1517678 C93.2584398,26.1517678 93.9771916,31.7828735 94.1266654,32.4400085 C94.2761391,33.0971436 94.1659833,33.43925 95.3399862,33.871466 C96.5139891,34.3036819 96.5904976,34.9426363 97.6181028,35.1568588 C99.7898865,35.6096056 106.260213,35.2867829 106.631797,35.1568588 C107.00338,35.0269347 108.169673,34.6708002 108.169674,34.0146118 C108.169674,33.3584233 107.563188,32.5363848 107.563188,32.5363848 C107.563188,32.5363848 109.243885,32.0179331 109.243885,31.0796689 C109.243885,30.1414047 108.313374,29.3938072 108.313374,29.3938072 C108.313374,29.3938072 109.955972,28.6007794 109.955972,27.7983761 C109.955972,26.9959727 108.578475,25.8916562 108.578475,25.8916562 C108.578475,25.8916562 110.072822,25.2858606 110.072821,24.3512645 C110.072821,23.4166684 108.543552,22.740482 107.594871,22.740482 C106.592511,22.740482 102.321927,22.929175 101.677911,22.7404821 C101.033894,22.5517891 100.974979,21.8994034 101.292432,20.6812969 C101.52047,19.8062834 102.278702,18.4528279 102.498616,17.2875804 C103.024672,14.5001915 99.7647878,13.1644526 99.7647882,14.3996753 Z M10.7855182,25.4355591 L6.98490703,29.0144318 L6.98490703,34.5616843 C6.98490703,35.9080289 6.62967327,36.9433352 5.91919511,37.6676345 C5.20871695,38.3919338 4.39125132,38.754078 3.46677371,38.754078 C2.3882165,38.754078 1.5407914,38.3961943 0.924472989,37.6804162 C0.308154581,36.9646381 0,35.9080291 0,34.5105576 L0,4.75478793 C0,3.20393537 0.299594732,2.02377131 0.898793184,1.21426036 C1.49799164,0.404749406 2.35397658,0 3.46677371,0 C4.54533092,0 5.40131587,0.366404725 6.03475423,1.09922517 C6.6681926,1.83204561 6.98490703,2.91421771 6.98490703,4.34577392 L6.98490703,21.2687288 L14.8686072,13.0373218 C15.8444447,12.0147816 16.5891516,11.3160563 17.1027503,10.9411249 C17.616349,10.5661935 18.241218,10.3787307 18.9773761,10.3787307 C19.8504938,10.3787307 20.578081,10.6556645 21.1601595,11.2095404 C21.742238,11.7634163 22.0332729,12.4578811 22.0332729,13.2929555 C22.0332729,14.3154957 21.0831296,15.6788621 19.1828145,17.3830957 L15.4592428,20.7830247 L22.6495882,32.0309101 C23.1803069,32.8659846 23.5612202,33.5008021 23.7923396,33.9353816 C24.023459,34.3699612 24.1390169,34.7832316 24.1390169,35.1752054 C24.1390169,36.2829572 23.8351423,37.1563638 23.2273838,37.7954514 C22.6196254,38.434539 21.8192795,38.754078 20.8263221,38.754078 C19.9703243,38.754078 19.3112159,38.5240099 18.8489771,38.0638669 C18.3867382,37.6037238 17.7618692,36.7686619 16.9743513,35.558656 L10.7855182,25.4355591 Z M45.9409577,33.9225999 C45.1020799,34.9792248 44.2204154,35.8654129 43.2959378,36.581191 C42.3714602,37.2969692 41.3613979,37.8295342 40.2657208,38.178902 C39.1700436,38.5282699 37.9203056,38.7029513 36.5164692,38.7029513 C34.8215936,38.7029513 33.3022203,38.3535886 31.9583038,37.6548528 C30.6143872,36.9561171 29.5743655,35.9932395 28.8382074,34.7661913 C27.9650897,33.2835081 27.5285374,31.1532481 27.5285374,28.3753474 L27.5285374,14.5455609 C27.5285374,13.1480894 27.8452518,12.104262 28.4786902,11.4140474 C29.1121285,10.7238328 29.9509938,10.3787307 30.9953111,10.3787307 C32.0567483,10.3787307 32.9127333,10.7280933 33.5632916,11.4268291 C34.2138499,12.1255648 34.5391242,13.1651317 34.5391242,14.5455609 L34.5391242,25.7167562 C34.5391242,27.3357782 34.6760818,28.6948841 34.9500011,29.7941147 C35.2239204,30.8933454 35.7161117,31.7539704 36.4265899,32.3760157 C37.137068,32.998061 38.1000511,33.3090789 39.315568,33.3090789 C40.4968449,33.3090789 41.6096254,32.9597163 42.6539427,32.2609805 C43.69826,31.5622447 44.4600866,30.6504934 44.9394453,29.5256993 C45.3332043,28.5372438 45.5300808,26.3728996 45.5300808,23.0326018 L45.5300808,14.5455609 C45.5300808,13.1651317 45.8553551,12.1255648 46.5059134,11.4268291 C47.1564718,10.7280933 48.0038969,10.3787307 49.0482142,10.3787307 C50.0925315,10.3787307 50.9313967,10.7238328 51.5648351,11.4140474 C52.1982734,12.104262 52.5149879,13.1480894 52.5149879,14.5455609 L52.5149879,34.7661913 C52.5149879,36.0954935 52.2111132,37.0924552 51.6033548,37.7571063 C50.9955964,38.4217574 50.2123701,38.754078 49.2536526,38.754078 C48.2949351,38.754078 47.503149,38.4089759 46.8782706,37.7187613 C46.2533922,37.0285467 45.9409577,36.0614086 45.9409577,34.8173181 L45.9409577,33.9225999 Z M77.4242564,34.0759802 C76.4826588,35.1496474 75.5539151,36.023054 74.6379975,36.6962262 C73.7220799,37.3693985 72.7291373,37.8806609 71.6591401,38.2300288 C70.5891429,38.5793967 69.4207234,38.754078 68.1538467,38.754078 C66.476091,38.754078 64.9224783,38.4004548 63.492962,37.6931979 C62.0634457,36.985941 60.8265475,35.9761977 59.7822302,34.6639378 C58.7379129,33.351678 57.9461268,31.8093697 57.4068482,30.0369668 C56.8675696,28.2645639 56.5979343,26.3473298 56.5979343,24.2852072 C56.5979343,19.9223692 57.6679155,16.5224742 59.80791,14.0854202 C61.9479045,11.6483661 64.7640949,10.4298574 68.2565659,10.4298574 C70.2767207,10.4298574 71.9801307,10.7749595 73.3668472,11.4651741 C74.7535636,12.1553887 76.1060198,13.2162582 77.4242564,14.6478144 L77.4242564,4.34577392 C77.4242564,2.91421771 77.7110113,1.83204561 78.2845299,1.09922517 C78.8580484,0.366404725 79.675514,0 80.7369513,0 C81.7983885,0 82.6158541,0.336581085 83.1893727,1.00975335 C83.7628912,1.68292562 84.0496461,2.67562679 84.0496461,3.98788665 L84.0496461,34.7661913 C84.0496461,36.0954935 83.7414916,37.0924552 83.1251731,37.7571063 C82.5088547,38.4217574 81.7127887,38.754078 80.7369513,38.754078 C79.7782337,38.754078 78.9864477,38.4089759 78.3615693,37.7187613 C77.7366909,37.0285467 77.4242564,36.0443665 77.4242564,34.7661913 L77.4242564,34.0759802 Z M63.634201,24.5152776 C63.634201,26.4069769 63.9295158,28.0174534 64.5201542,29.3467556 C65.1107927,30.6760578 65.9196985,31.6772801 66.9468958,32.3504523 C67.9740932,33.0236246 69.0954335,33.3602057 70.3109503,33.3602057 C71.5435871,33.3602057 72.6692074,33.0406667 73.6878447,32.4015791 C74.7064821,31.7624915 75.5196678,30.7825719 76.1274262,29.4617908 C76.7351846,28.1410098 77.0390593,26.4921885 77.0390593,24.5152776 C77.0390593,22.657663 76.7351846,21.0599679 76.1274262,19.7221446 C75.5196678,18.3843212 74.6979222,17.3617964 73.6621649,16.6545395 C72.6264076,15.9472825 71.4922275,15.5936594 70.2595907,15.5936594 C68.975594,15.5936594 67.8285742,15.9558036 66.8184968,16.6801028 C65.8084194,17.4044021 65.0251932,18.443969 64.4687946,19.7988347 C63.9123961,21.1537004 63.634201,22.7258323 63.634201,24.5152776 Z M143.107337,29.6279528 C143.107337,31.5537367 142.636545,33.202558 141.694948,34.574466 C140.75335,35.9463741 139.362374,36.985941 137.521979,37.6931979 C135.681584,38.4004548 133.443183,38.754078 130.80671,38.754078 C128.290077,38.754078 126.132995,38.3706312 124.335399,37.6037261 C122.537804,36.836821 121.211027,35.878204 120.355029,34.7278463 C119.499032,33.5774886 119.071039,32.4228877 119.071039,31.2640088 C119.071039,30.4971037 119.344954,29.8409836 119.892793,29.2956289 C120.440632,28.7502741 121.133979,28.4776009 121.972857,28.4776009 C122.709015,28.4776009 123.273965,28.6565427 123.667724,29.0144318 C124.061483,29.3723208 124.438117,29.8750622 124.797636,30.5226709 C125.516674,31.7667615 126.376939,32.6955548 127.378456,33.3090789 C128.379974,33.922603 129.74527,34.2293605 131.474385,34.2293605 C132.878221,34.2293605 134.029521,33.9183425 134.928319,33.2962972 C135.827117,32.674252 136.276509,31.9627451 136.276509,31.1617553 C136.276509,29.9347072 135.809997,29.0399979 134.876959,28.4776009 C133.943922,27.9152038 132.407429,27.3783782 130.267434,26.8671082 C127.85352,26.2706264 125.889035,25.64433 124.373919,24.9882 C122.858803,24.3320701 121.647584,23.4671845 120.740226,22.3935174 C119.832869,21.3198502 119.379197,19.999089 119.379197,18.4311941 C119.379197,17.0337225 119.798629,15.7129613 120.637507,14.4688708 C121.476385,13.2247803 122.713283,12.2320791 124.348239,11.4907375 C125.983195,10.7493959 127.95624,10.3787307 130.267434,10.3787307 C132.08215,10.3787307 133.712801,10.5661935 135.159437,10.9411249 C136.606073,11.3160563 137.813012,11.8187977 138.78029,12.4493641 C139.747567,13.0799305 140.483714,13.7786558 140.988753,14.5455609 C141.493792,15.3124661 141.746307,16.0623176 141.746307,16.795138 C141.746307,17.5961278 141.476672,18.2522479 140.937393,18.763518 C140.398115,19.2747881 139.632008,19.5304193 138.639051,19.5304193 C137.920013,19.5304193 137.307983,19.3259143 136.802945,18.9168982 C136.297906,18.5078822 135.720116,17.8943673 135.069558,17.0763352 C134.538839,16.3946417 133.91397,15.8492952 133.194932,15.4402791 C132.475894,15.031263 131.500071,14.8267581 130.267434,14.8267581 C129.000558,14.8267581 127.947696,15.0951708 127.108818,15.6320044 C126.26994,16.168838 125.850508,16.8377396 125.850508,17.6387294 C125.850508,18.3715499 126.158662,18.9722832 126.774981,19.4409474 C127.391299,19.9096117 128.221605,20.297319 129.265922,20.604081 C130.310239,20.9108431 131.748294,21.2857689 133.580129,21.7288696 C135.754363,22.257182 137.530532,22.887739 138.908689,23.6205594 C140.286845,24.3533799 141.331147,25.2182654 142.041625,26.2152421 C142.752103,27.2122187 143.107337,28.3497776 143.107337,29.6279528 Z M174,24.5664043 C174,26.6455693 173.674726,28.5628033 173.024167,30.3181639 C172.373609,32.0735245 171.432026,33.5817486 170.199389,34.8428815 C168.966752,36.1040143 167.494458,37.0711524 165.782462,37.7443247 C164.070467,38.4174969 162.144501,38.754078 160.004506,38.754078 C157.881632,38.754078 155.972785,38.4132364 154.27791,37.731543 C152.583034,37.0498495 151.11502,36.0741904 149.873823,34.8045364 C148.632626,33.5348824 147.691043,32.0351793 147.049044,30.3053822 C146.407046,28.5755851 146.086052,26.6626116 146.086052,24.5664043 C146.086052,22.4531547 146.411326,20.5188786 147.061884,18.763518 C147.712443,17.0081574 148.645466,15.5084543 149.860983,14.2643638 C151.0765,13.0202733 152.548794,12.0616563 154.27791,11.388484 C156.007025,10.7153117 157.915872,10.3787307 160.004506,10.3787307 C162.127381,10.3787307 164.053347,10.7195723 165.782462,11.4012657 C167.511578,12.0829591 168.992432,13.0543577 170.225069,14.3154906 C171.457705,15.5766234 172.395009,17.0763265 173.037007,18.8146447 C173.679006,20.552963 174,22.470197 174,24.5664043 L174,24.5664043 Z M166.963733,24.5664043 C166.963733,21.7203342 166.334584,19.5048638 165.076268,17.9199266 C163.817951,16.3349893 162.127381,15.5425326 160.004506,15.5425326 C158.63491,15.5425326 157.427971,15.8961558 156.383654,16.6034127 C155.339336,17.3106696 154.53471,18.3544971 153.969752,19.7349263 C153.404793,21.1153555 153.122318,22.7258321 153.122318,24.5664043 C153.122318,26.3899343 153.400513,27.9833688 153.956912,29.3467556 C154.513311,30.7101425 155.309377,31.7539699 156.345134,32.4782692 C157.380891,33.2025685 158.60067,33.5647127 160.004506,33.5647127 C162.127381,33.5647127 163.817951,32.7679954 165.076268,31.174537 C166.334584,29.5810786 166.963733,27.3783897 166.963733,24.5664043 L166.963733,24.5664043 Z" id="Logo-Text-Copy"></path>
                    <path d="M104.852695,29.7474747 L104.179099,29.7474747 L104.179099,27.7344877 C104.179099,26.2562004 102.96873,25.0505051 101.484713,25.0505051 C100.000695,25.0505051 98.7903268,26.2562004 98.7903268,27.7344877 L98.7903268,29.7474747 L98.1167304,29.7474747 C97.7430948,29.7474747 97.4431339,30.0462775 97.4431339,30.4184704 L97.4431339,35.1154401 C97.4431339,35.487633 97.7430948,35.7864358 98.1167304,35.7864358 L104.852695,35.7864358 C105.226331,35.7864358 105.526292,35.487633 105.526292,35.1154401 L105.526292,30.4184704 C105.526292,30.0462775 105.226331,29.7474747 104.852695,29.7474747 L104.852695,29.7474747 Z M102.033474,32.7741274 C102.350157,32.5871375 102.562467,32.2432308 102.562467,31.8499278 C102.562467,31.2569988 102.07994,30.7763348 101.484713,30.7763348 C100.889485,30.7763348 100.406958,31.2569988 100.406958,31.8499278 C100.406958,32.2432308 100.619268,32.5871375 100.935951,32.7741274 L100.406958,34.3549784 L102.562467,34.3549784 L102.033474,32.7741274 Z M100.13752,27.7344877 C100.13752,26.9901019 100.737442,26.3924964 101.484713,26.3924964 C102.231984,26.3924964 102.831906,26.9901019 102.831906,27.7344877 L102.831906,29.7474747 L100.13752,29.7474747 L100.13752,27.7344877 Z" id="Logo-Lock"></path>
                </g>
            </g>
        </g>
    </g>
</svg>