<?xml version="1.0" encoding="UTF-8" standalone="no"?>
<svg width="282px" height="62px" viewBox="0 0 282 62" version="1.1" xmlns="http://www.w3.org/2000/svg" xmlns:xlink="http://www.w3.org/1999/xlink" xmlns:sketch="http://www.bohemiancoding.com/sketch/ns">
    <!-- Generator: Sketch 3.3.2 (12043) - http://www.bohemiancoding.com/sketch -->
    <title>kudoso-logo</title>
    <desc>Created with Sketch.</desc>
    <defs></defs>
    <g id="Refined-Logo" stroke="none" stroke-width="1" fill="none" fill-rule="evenodd" sketch:type="MSPage">
        <g id="kudoso-logo" sketch:type="MSArtboardGroup" fill="#4990E2">
            <g id="Logo" sketch:type="MSLayerGroup">
                <path d="M165.57368,62 C180.236379,61.9999998 187.854781,51.6789835 187.854781,38.9473644 C187.854781,26.2157453 180.425886,15.8947288 165.57368,15.8947288 C150.721474,15.8947288 143.292579,26.2157453 143.292579,38.9473644 C143.292579,51.6789835 150.910982,62.0000002 165.57368,62 Z M162.380791,22.6794886 C162.380792,24.6249645 162.083313,25.6220969 161.261743,27.2279392 C160.440174,28.8337816 160.083359,28.3743333 159.03739,30.0816507 C157.991421,31.7889681 158.051701,33.0847705 156.478397,35.3660767 C155.587457,36.657948 154.643085,38.3334476 153.599577,38.9344888 C152.800361,39.3948218 152.24734,41.1890342 152.24734,41.1890342 C152.24734,41.1890342 153.366775,50.0580257 153.599577,51.0930135 C153.832378,52.1280012 153.660813,52.6668188 155.489289,53.3475589 C157.317765,54.028299 157.436924,55.0346521 159.03739,55.3720526 C162.419881,56.0851289 172.497228,55.5766831 173.075959,55.3720526 C173.65469,55.1674221 175.471158,54.6065104 175.471158,53.5730135 C175.471159,52.5395167 174.526575,51.2448061 174.526575,51.2448061 C174.526575,51.2448061 177.144211,50.4282447 177.144212,48.9504786 C177.144212,47.4727125 175.694967,46.2952463 175.694967,46.2952463 C175.694967,46.2952463 178.253266,45.0462275 178.253266,43.7824423 C178.253266,42.5186571 176.107855,40.7793584 176.107855,40.7793584 C176.107855,40.7793584 178.435257,39.8252304 178.435256,38.3532416 C178.435255,36.8812527 176.053463,35.8162592 174.57592,35.8162592 C173.014773,35.8162592 166.363462,36.1134506 165.360424,35.8162592 C164.357387,35.5190678 164.265628,34.4915603 164.760051,32.5730426 C165.115215,31.1948964 166.296139,29.063204 166.638649,27.2279391 C167.457966,22.8378015 162.38079,20.7340128 162.380791,22.6794886 Z M16.7981347,40.0610056 L10.878792,45.69773 L10.878792,54.4346528 C10.878792,56.5551455 10.3255256,58.185753 9.21897629,59.3265244 C8.11242697,60.4672957 6.83924775,61.0376729 5.39940043,61.0376729 C3.71957856,61.0376729 2.39973832,60.4740061 1.43984012,59.3466555 C0.479941906,58.219305 0,56.5551459 0,54.3541282 L0,7.488791 C0,5.04619821 0.466610186,3.18743982 1.39984456,1.91246007 C2.33307893,0.637480314 3.66625089,0 5.39940043,0 C7.0792223,0 8.41239426,0.577087442 9.39895631,1.73127964 C10.3855184,2.88547184 10.878792,4.58989289 10.878792,6.84459392 L10.878792,33.4982479 L23.1574285,20.5337818 C24.6772673,18.923281 25.837127,17.8227887 26.6370421,17.2322718 C27.4369573,16.6417548 28.4101728,16.3465008 29.5567179,16.3465008 C30.9165737,16.3465008 32.0497699,16.7826715 32.9563404,17.6550261 C33.8629109,18.5273807 34.3161894,19.6211627 34.3161894,20.9364049 C34.3161894,22.5469057 32.8363685,24.6942078 29.8766824,27.3783757 L24.0773264,32.7332639 L35.2760828,50.4486834 C36.1026618,51.7639257 36.6959234,52.7637633 37.0558852,53.4482261 C37.415847,54.1326889 37.5958252,54.7835898 37.5958252,55.4009484 C37.5958252,57.1456576 37.1225492,58.521273 36.1759829,59.527836 C35.2294166,60.5343989 33.9829008,61.0376729 32.4363981,61.0376729 C31.1032062,61.0376729 30.0766638,60.6753156 29.3567401,59.9505903 C28.6368165,59.225865 27.6636009,57.9106424 26.4370643,56.0048832 L16.7981347,40.0610056 Z M74.5517215,53.4280949 C73.2451934,55.092279 71.8720263,56.4880254 70.432179,57.6153759 C68.9923316,58.7427264 67.4191887,59.5815163 65.712703,60.1317707 C64.0062173,60.6820251 62.0597863,60.9571482 59.8733515,60.9571482 C57.2336314,60.9571482 54.8672511,60.4069021 52.7741398,59.3063932 C50.6810284,58.2058844 49.0612245,56.6893523 47.9146794,54.7567514 C46.5548236,52.4215253 45.8749059,49.0663658 45.8749059,44.6911721 L45.8749059,22.9092585 C45.8749059,20.7082408 46.3681795,19.0642126 47.3547416,17.9771246 C48.3413036,16.8900366 49.6478121,16.3465008 51.2743063,16.3465008 C52.9274643,16.3465008 54.2606363,16.8967469 55.2738622,17.9972558 C56.2870881,19.0977646 56.7936934,20.7350825 56.7936934,22.9092585 L56.7936934,40.5038911 C56.7936934,43.0538506 57.0070009,45.1944424 57.4336224,46.9257307 C57.8602438,48.657019 58.6268177,50.0125034 59.733367,50.9922247 C60.8399163,51.971946 62.3397348,52.4617993 64.2328674,52.4617993 C66.0726723,52.4617993 67.8057958,51.9115531 69.43229,50.8110443 C71.0587842,49.7105355 72.2453072,48.2745272 72.9918947,46.5029764 C73.605163,44.946159 73.9117926,41.5373169 73.9117926,36.2763478 L73.9117926,22.9092585 C73.9117926,20.7350825 74.4183979,19.0977646 75.4316238,17.9972558 C76.4448497,16.8967469 77.7646899,16.3465008 79.3911841,16.3465008 C81.0176783,16.3465008 82.3241868,16.8900366 83.3107489,17.9771246 C84.2973109,19.0642126 84.7905846,20.7082408 84.7905846,22.9092585 L84.7905846,54.7567514 C84.7905846,56.8504023 84.3173085,58.420617 83.3707422,59.4674425 C82.4241759,60.514268 81.2043236,61.0376729 79.7111486,61.0376729 C78.2179736,61.0376729 76.9847895,60.494137 76.0115594,59.407049 C75.0383293,58.319961 74.5517215,56.7967186 74.5517215,54.837276 L74.5517215,53.4280949 Z M125.586054,54.7567514 L125.586054,53.6696688 C124.119543,55.3606946 122.673052,56.73631 121.246536,57.7965563 C119.820021,58.8568026 118.273541,59.6620409 116.607052,60.2122954 C114.940562,60.7625498 113.120782,61.0376729 111.147658,61.0376729 C108.534602,61.0376729 106.114894,60.4807164 103.888464,59.3667867 C101.662033,58.252857 99.7355998,56.6625114 98.1091056,54.5957021 C96.4826114,52.5288928 95.2494274,50.0997573 94.4095164,47.3082227 C93.5696055,44.5166881 93.1496563,41.4970445 93.1496563,38.2492013 C93.1496563,31.3777315 94.8161213,26.0228969 98.1491012,22.1845368 C101.482081,18.3461767 105.868217,16.4270254 111.30764,16.4270254 C114.453973,16.4270254 117.106985,16.9705613 119.266756,18.0576493 C121.426527,19.1447373 123.532939,20.8156067 125.586054,23.0703077 L125.586054,6.84459392 C125.586054,4.58989289 126.032667,2.88547184 126.925906,1.73127964 C127.819144,0.577087442 129.092324,0 130.745482,0 C132.39864,0 133.671819,0.530115208 134.565057,1.59036153 C135.458296,2.65060785 135.904909,4.2141122 135.904909,6.28092148 L135.904909,54.7567514 C135.904909,56.8504023 135.424967,58.420617 134.465069,59.4674425 C133.50517,60.514268 132.26532,61.0376729 130.745482,61.0376729 C129.252307,61.0376729 128.019123,60.494137 127.045892,59.407049 C126.072662,58.319961 125.586054,56.7698773 125.586054,54.7567514 L125.586054,54.7567514 Z M104.108439,38.6115622 C104.108439,41.5909886 104.568384,44.1274892 105.488286,46.2211401 C106.408189,48.3147911 107.668036,49.8917161 109.267867,50.9519624 C110.867697,52.0122087 112.614152,52.5423239 114.507285,52.5423239 C116.427081,52.5423239 118.180202,52.03905 119.766701,51.032487 C121.353199,50.0259241 122.619712,48.4825507 123.566279,46.4023206 C124.512845,44.3220904 124.986121,41.7251969 124.986121,38.6115622 C124.986121,35.6858192 124.512845,33.1694495 123.566279,31.0623777 C122.619712,28.9553059 121.339867,27.3448293 119.726705,26.2308996 C118.113543,25.11697 116.34709,24.5600135 114.427294,24.5600135 C112.427506,24.5600135 110.641055,25.1303906 109.067889,26.271162 C107.494722,27.4119333 106.27487,29.0492512 105.408295,31.1831647 C104.54172,33.3170781 104.108439,35.7931859 104.108439,38.6115622 Z M231.885565,46.6640256 C231.885565,49.6971353 231.15232,52.2940288 229.685809,54.454784 C228.219298,56.6155392 226.052894,58.252857 223.186531,59.3667867 C220.320168,60.4807164 216.833923,61.0376729 212.727692,61.0376729 C208.808108,61.0376729 205.448515,60.4337441 202.648811,59.2258686 C199.849108,58.017993 197.782692,56.5081712 196.4495,54.6963579 C195.116308,52.8845446 194.449722,51.0660481 194.449722,49.2408139 C194.449722,48.0329384 194.876337,46.9995492 195.72958,46.1406155 C196.582823,45.2816818 197.662692,44.8522213 198.96922,44.8522213 C200.115765,44.8522213 200.995659,45.1340547 201.608927,45.69773 C202.222195,46.2614053 202.808791,47.0532229 203.368731,48.0732067 C204.488613,50.0326493 205.828451,51.4954989 207.388285,52.4617993 C208.94812,53.4280997 211.074529,53.9112427 213.767577,53.9112427 C215.954012,53.9112427 217.747128,53.4213894 219.146979,52.4416681 C220.546831,51.4619469 221.246746,50.3413236 221.246746,49.0797647 C221.246746,47.1471638 220.520168,45.7379968 219.066988,44.8522213 C217.613809,43.9664459 215.220765,43.1209457 211.887786,42.3156954 C208.128184,41.3762366 205.068555,40.3898197 202.708805,39.3564151 C200.349055,38.3230104 198.462617,36.9608156 197.049433,35.2697899 C195.63625,33.5787641 194.929669,31.4985652 194.929669,29.0291307 C194.929669,26.828113 195.582923,24.7479141 196.889451,22.7884715 C198.195979,20.829029 200.122413,19.2655246 202.668809,18.0979116 C205.215206,16.9302985 208.288167,16.3465008 211.887786,16.3465008 C214.714152,16.3465008 217.253845,16.6417548 219.506939,17.2322718 C221.760034,17.8227887 223.639806,18.6146063 225.146313,19.6077485 C226.65282,20.6008906 227.799348,21.7013829 228.585931,22.9092585 C229.372515,24.117134 229.7658,25.2981502 229.7658,26.4523424 C229.7658,27.7139013 229.345851,28.7472904 228.50594,29.5525408 C227.666029,30.3577912 226.47284,30.7604103 224.926338,30.7604103 C223.806456,30.7604103 222.853238,30.438315 222.066655,29.7941147 C221.280072,29.1499144 220.380181,28.1836285 219.366955,26.8952279 C218.540376,25.8215607 217.56716,24.9626399 216.447279,24.3184396 C215.327398,23.6742393 213.807582,23.352144 211.887786,23.352144 C209.914661,23.352144 208.27486,23.7748941 206.968332,24.620407 C205.661804,25.4659198 205.008549,26.5194399 205.008549,27.7809989 C205.008549,28.9351911 205.488491,29.881346 206.44839,30.6194922 C207.408288,31.3576384 208.701465,31.9682774 210.327959,32.4514277 C211.954453,32.9345779 214.194182,33.525086 217.047213,34.2229696 C220.43352,35.0550617 223.199852,36.0481889 225.346291,37.2023811 C227.49273,38.3565733 229.1192,39.7187681 230.225749,41.2890063 C231.332299,42.8592445 231.885565,44.6508997 231.885565,46.6640256 Z M282,38.6920868 C282,41.9667717 281.493395,44.9864152 280.480169,47.7511082 C279.466943,50.5158011 278.000454,52.8912541 276.080657,54.8775383 C274.160861,56.8638226 271.867805,58.387065 269.201421,59.4473113 C266.535037,60.5075576 263.5354,61.0376729 260.20242,61.0376729 C256.896104,61.0376729 253.923131,60.5008473 251.283411,59.4271802 C248.643691,58.353513 246.357301,56.8168499 244.424173,54.8171449 C242.491044,52.8174398 241.024555,50.4554074 240.024661,47.730977 C239.024767,45.0065466 238.524828,41.9936133 238.524828,38.6920868 C238.524828,35.3637186 239.031433,32.3172338 240.044659,29.5525408 C241.057885,26.7878479 242.511042,24.4258156 244.404175,22.466373 C246.297307,20.5069304 248.590363,18.9971086 251.283411,17.9368623 C253.976459,16.876616 256.949432,16.3465008 260.20242,16.3465008 C263.508737,16.3465008 266.508373,16.8833263 269.201421,17.9569935 C271.894469,19.0306606 274.200856,20.5606134 276.120653,22.5468976 C278.040449,24.5331819 279.500273,26.8952142 280.500167,29.6330654 C281.500061,32.3709167 282,35.3905603 282,38.6920868 L282,38.6920868 Z M271.041217,38.6920868 C271.041217,34.2095264 270.061336,30.7201605 268.101543,28.2238843 C266.141751,25.7276082 263.508737,24.4794888 260.20242,24.4794888 C258.069313,24.4794888 256.189541,25.0364453 254.563047,26.150375 C252.936553,27.2643047 251.683371,28.9083329 250.803464,31.0825089 C249.923557,33.2566849 249.483611,35.7931855 249.483611,38.6920868 C249.483611,41.5641465 249.916892,44.0738058 250.783466,46.2211401 C251.650041,48.3684745 252.889891,50.0125026 254.503053,51.153274 C256.116216,52.2940453 258.015986,52.8644225 260.20242,52.8644225 C263.508737,52.8644225 266.141751,51.6095928 268.101543,49.0998958 C270.061336,46.5901988 271.041217,43.1209639 271.041217,38.6920868 L271.041217,38.6920868 Z" id="Logo-Text-Copy" sketch:type="MSShapeGroup"></path>
                <path d="M170.30506,46.8522727 L169.255952,46.8522727 L169.255952,43.6818182 C169.255952,41.3535156 167.370838,39.4545455 165.059524,39.4545455 C162.74821,39.4545455 160.863095,41.3535156 160.863095,43.6818182 L160.863095,46.8522727 L159.813988,46.8522727 C159.232061,46.8522727 158.764881,47.3228871 158.764881,47.9090909 L158.764881,55.3068182 C158.764881,55.893022 159.232061,56.3636364 159.813988,56.3636364 L170.30506,56.3636364 C170.886986,56.3636364 171.354167,55.893022 171.354167,55.3068182 L171.354167,47.9090909 C171.354167,47.3228871 170.886986,46.8522727 170.30506,46.8522727 L170.30506,46.8522727 Z M165.914204,51.6192507 C166.407428,51.3247416 166.738095,50.7830885 166.738095,50.1636364 C166.738095,49.2297731 165.986573,48.4727273 165.059524,48.4727273 C164.132474,48.4727273 163.380952,49.2297731 163.380952,50.1636364 C163.380952,50.7830885 163.711619,51.3247416 164.204843,51.6192507 L163.380952,54.1090909 L166.738095,54.1090909 L165.914204,51.6192507 Z M162.96131,43.6818182 C162.96131,42.5094105 163.895671,41.5681818 165.059524,41.5681818 C166.223377,41.5681818 167.157738,42.5094105 167.157738,43.6818182 L167.157738,46.8522727 L162.96131,46.8522727 L162.96131,43.6818182 Z" id="Logo-Lock" sketch:type="MSShapeGroup"></path>
            </g>
        </g>
    </g>
</svg>